<svg width="88" height="88" viewBox="0 0 88 88" fill="none" xmlns="http://www.w3.org/2000/svg">
<circle cx="44" cy="44" r="41.5" fill="#161616" stroke="#81F416" stroke-width="5"/>
<mask id="path-2-inside-1_1401_8886" fill="white">
<ellipse cx="56.0077" cy="30.8083" rx="4.35667" ry="8.42451"/>
</mask>
<ellipse cx="56.0077" cy="30.8083" rx="4.35667" ry="8.42451" fill="#81F416"/>
<path d="M60.3643 30.8083H55.3643C55.3643 32.5028 54.9984 33.7891 54.647 34.4685C54.4731 34.805 54.3938 34.8183 54.538 34.7004C54.7148 34.5558 55.2261 34.2328 56.0077 34.2328V39.2328V44.2328C60.0365 44.2328 62.4351 41.1785 63.5296 39.0621C64.755 36.6925 65.3643 33.7664 65.3643 30.8083H60.3643ZM56.0077 39.2328V34.2328C56.7893 34.2328 57.3006 34.5558 57.4774 34.7004C57.6215 34.8183 57.5423 34.805 57.3683 34.4685C57.0169 33.7891 56.651 32.5028 56.651 30.8083H51.651H46.651C46.651 33.7664 47.2603 36.6925 48.4858 39.0621C49.5803 41.1785 51.9789 44.2328 56.0077 44.2328V39.2328ZM51.651 30.8083H56.651C56.651 29.1137 57.0169 27.8275 57.3683 27.148C57.5423 26.8116 57.6215 26.7982 57.4774 26.9161C57.3006 27.0607 56.7893 27.3838 56.0077 27.3838V22.3838V17.3838C51.9789 17.3838 49.5803 20.438 48.4858 22.5545C47.2603 24.9241 46.651 27.8501 46.651 30.8083H51.651ZM56.0077 22.3838V27.3838C55.2261 27.3838 54.7148 27.0607 54.538 26.9161C54.3938 26.7982 54.4731 26.8116 54.647 27.148C54.9984 27.8275 55.3643 29.1137 55.3643 30.8083H60.3643H65.3643C65.3643 27.8501 64.755 24.9241 63.5296 22.5545C62.4351 20.438 60.0365 17.3838 56.0077 17.3838V22.3838Z" fill="#81F416" mask="url(#path-2-inside-1_1401_8886)"/>
<mask id="path-4-inside-2_1401_8886" fill="white">
<ellipse cx="31.9875" cy="30.8083" rx="4.35667" ry="8.42451"/>
</mask>
<ellipse cx="31.9875" cy="30.8083" rx="4.35667" ry="8.42451" fill="#81F416"/>
<path d="M36.3442 30.8083H31.3442C31.3442 32.5028 30.9783 33.7891 30.6269 34.4685C30.4529 34.805 30.3737 34.8183 30.5178 34.7004C30.6946 34.5558 31.2059 34.2328 31.9875 34.2328V39.2328V44.2328C36.0163 44.2328 38.4149 41.1785 39.5094 39.0621C40.7349 36.6925 41.3442 33.7664 41.3442 30.8083H36.3442ZM31.9875 39.2328V34.2328C32.7691 34.2328 33.2804 34.5558 33.4572 34.7004C33.6014 34.8183 33.5221 34.805 33.3482 34.4685C32.9968 33.7891 32.6309 32.5028 32.6309 30.8083H27.6309H22.6309C22.6309 33.7664 23.2402 36.6925 24.4656 39.0621C25.5601 41.1785 27.9587 44.2328 31.9875 44.2328V39.2328ZM27.6309 30.8083H32.6309C32.6309 29.1137 32.9968 27.8275 33.3482 27.148C33.5221 26.8116 33.6014 26.7982 33.4572 26.9161C33.2804 27.0607 32.7691 27.3838 31.9875 27.3838V22.3838V17.3838C27.9587 17.3838 25.5601 20.438 24.4656 22.5545C23.2402 24.9241 22.6309 27.8501 22.6309 30.8083H27.6309ZM31.9875 22.3838V27.3838C31.2059 27.3838 30.6946 27.0607 30.5178 26.9161C30.3737 26.7982 30.4529 26.8116 30.6269 27.148C30.9783 27.8275 31.3442 29.1137 31.3442 30.8083H36.3442H41.3442C41.3442 27.8501 40.7349 24.9241 39.5094 22.5545C38.4149 20.438 36.0163 17.3838 31.9875 17.3838V22.3838Z" fill="#81F416" mask="url(#path-4-inside-2_1401_8886)"/>
<path d="M70.7731 51.7623C68.8835 57.3549 65.2888 62.2147 60.4942 65.6585C55.6995 69.1023 49.9462 70.9568 44.043 70.9613C38.1398 70.9659 32.3836 69.1202 27.5836 65.6838C22.7837 62.2475 19.1815 57.3932 17.2833 51.8034" stroke="#81F416" stroke-width="5"/>
<path d="M67.0813 47.3271C67.1537 48.4646 67.5617 49.5552 68.2539 50.4608C68.946 51.3664 69.8912 52.0464 70.9699 52.4149C72.0485 52.7833 73.2122 52.8236 74.3137 52.5307C75.4153 52.2378 76.4053 51.6248 77.1584 50.7693" stroke="#81F416" stroke-width="5"/>
<path d="M20.9372 47.3105C20.8682 48.3965 20.4786 49.4376 19.8178 50.3021C19.157 51.1667 18.2547 51.8159 17.2249 52.1676C16.1952 52.5194 15.0843 52.5579 14.0326 52.2783C12.981 51.9986 12.0359 51.4134 11.3169 50.5967" stroke="#81F416" stroke-width="5"/>
</svg>
